<?xml version="1.0" encoding="utf-8"?>
<!-- Generator: Adobe Illustrator 23.0.0, SVG Export Plug-In . SVG Version: 6.00 Build 0)  -->
<svg version="1.1" id="OBJECTS" xmlns="http://www.w3.org/2000/svg" xmlns:xlink="http://www.w3.org/1999/xlink" x="0px" y="0px"
	 viewBox="0 0 696.51 329.67" style="enable-background:new 0 0 696.51 329.67;" xml:space="preserve">
<style type="text/css">
	.st0{opacity:0.1;fill:#001627;}
	.st1{fill:#3B212E;}
	.st2{fill:#26161F;}
	.st3{fill:#D1594A;}
	.st4{fill:#FF654A;}
	.st5{fill:#FF725F;}
	.st6{fill:#FFD2AF;}
	.st7{fill:#E5BA9C;}
	.st8{fill:#1E0D09;}
	.st9{fill:#001627;}
	.st10{fill:#E2967F;}
	.st11{fill:#FFFFFF;}
	.st12{opacity:0.2;fill:#001627;}
	.st13{fill:#E5B89A;}
	.st14{fill:#8B95B5;}
	.st15{fill:#A7B4D3;}
	.st16{fill:#00344E;}
	.st17{fill:#FFB680;}
	.st18{fill:none;stroke:#00344E;stroke-width:1.1108;stroke-miterlimit:10;}
	.st19{fill:none;stroke:#FFFFFF;stroke-width:0.2617;stroke-linecap:round;stroke-miterlimit:10;}
	.st20{fill:#883731;}
	.st21{fill:#BB969D;}
	.st22{fill:#753432;}
	.st23{fill:#DB976A;}
	.st24{fill:#5BA3A8;}
	.st25{fill:none;stroke:#427B7C;stroke-linecap:round;stroke-linejoin:round;stroke-miterlimit:10;}
	.st26{fill:#66BABC;}
	.st27{fill:none;stroke:#427B7C;stroke-width:0.7786;stroke-linecap:round;stroke-linejoin:round;stroke-miterlimit:10;}
</style>
<g>
	<g>
		<g>
			<ellipse class="st0" cx="337.17" cy="311.17" rx="190.6" ry="18.5"/>
			<g>
				<path class="st1" d="M184.3,265.02c0,0-22.82,46.87-15.21,46.87s29.58-48.35,29.58-48.35L184.3,265.02z"/>
				<path class="st2" d="M190.89,279.67c4.48-8.89,7.77-16.14,7.77-16.14l-14.37,1.49c0,0-3.13,6.44-6.69,14.54
					C182.03,279.59,186.46,279.63,190.89,279.67z"/>
				<g>
					<path class="st1" d="M497.96,265.02c0,0,22.82,46.87,15.21,46.87s-29.58-48.35-29.58-48.35L497.96,265.02z"/>
					<path class="st2" d="M491.37,279.67c-4.48-8.89-7.77-16.14-7.77-16.14l14.37,1.49c0,0,3.13,6.44,6.69,14.54
						C500.23,279.59,495.8,279.63,491.37,279.67z"/>
				</g>
				<path class="st3" d="M196.13,197.32c0,0-38.87-87.04-10.99-101.17c27.89-14.13,119.16-19.34,183.38-15.62
					c64.23,3.72,127.61,4.46,125.92,34.22c-1.69,29.76-15.21,84.06-15.21,84.06L196.13,197.32z"/>
				<polygon class="st4" points="184.3,270.97 497.82,270.97 483.46,189.14 191.91,189.14 				"/>
				<polygon class="st5" points="203.74,188.4 200.36,224.1 484.3,224.85 483.46,189.14 				"/>
				<path class="st4" d="M203.74,188.4c0,0-11.83-45.38-33.8-49.84c-21.97-4.46-28.73,14.13-13.52,34.96
					c15.21,20.83-6.76,77.37,10.99,90.76c17.75,13.39,29.58,2.23,29.58,2.23L203.74,188.4z"/>
				<path class="st4" d="M478.63,188.4c0,0,11.83-45.38,33.8-49.84c21.97-4.46,28.73,14.13,13.52,34.96
					c-15.21,20.83,6.76,77.37-10.99,90.76c-17.75,13.39-29.58,2.23-29.58,2.23L478.63,188.4z"/>
			</g>
		</g>
		<g>
			<g>
				<g>
					<path class="st1" d="M460.59,20.44c0,0-14.66-5.81-25.64,5.6c-6.91,7.18-11.88,26.03-5,44.52l0.56-3.24
						c0,0,0.43,2.53,1.75,4.82c0.09,0.16,0.18,0.31,0.28,0.46c1.54,2.4,26.69,6.3,31.18-3.31C468.2,59.68,460.59,20.44,460.59,20.44
						z"/>
					<path class="st6" d="M453.5,69.89c0,0,4.01,3.73,8.47,23.62l15.15-9.94c0,0-2.67-9.53-6.68-21.96
						C466.33,48.89,453.5,69.89,453.5,69.89z"/>
					<path class="st7" d="M472.95,69.57c-0.76-2.45-1.6-5.13-2.52-7.97c-4.1-12.71-16.93,8.29-16.93,8.29s2.09,1.95,4.93,10.5
						C464.03,77.74,469.18,74.44,472.95,69.57z"/>
					<path class="st6" d="M436.37,46.13c1.91-25.07,24.24-20.17,35.77-17.13c-0.88,12.62,1.78,19.79,4.61,31.77
						C457.43,86.81,433.88,78.73,436.37,46.13z"/>
					<path class="st1" d="M478.19,72.87c-1.32-2.56-2.35-5.35-3.15-9c0,0,1.4,4.68,4.17,8.74c3.09-0.8,6.91-2.03,10.49-3.84
						c-0.69-1.7-1.31-3.49-1.67-5.16c0,0,0.87,2.24,2.16,4.91c0.98-0.51,1.93-1.07,2.85-1.68c-0.53-1.39-0.98-2.81-1.28-4.15
						c0,0,0.65,1.69,1.67,3.88c2.63-1.82,4.87-4.05,6.2-6.78c0,0-8.56-14.24-9.81-21.1c-1.24-6.86-9.25-19.78-20.17-20.31
						c-10.91-0.53-13.46,7.84-14.92,12.79c-1.24,4.22-1.11,22.95,12.43,37.59l-4.19-13.21c1.79,5.71,5.02,13.76,9.99,18.35
						C472.97,73.89,475.11,73.61,478.19,72.87z"/>
				</g>
				<g>
					<g>
						<path class="st8" d="M451.42,43.12c0.76-0.79,1.72-1.36,2.75-1.78c1.03-0.41,2.18-0.61,3.34-0.51
							c0.29,0.05,0.58,0.08,0.86,0.15l0.83,0.28c0.51,0.28,1.05,0.53,1.44,0.96c0.88,0.74,1.4,1.78,1.75,2.79
							c-0.77-0.78-1.44-1.57-2.3-2.08c-0.82-0.53-1.73-0.89-2.7-0.96c-0.96-0.11-1.95,0.01-2.95,0.22
							C453.44,42.43,452.44,42.74,451.42,43.12z"/>
					</g>
					<g>
						<path class="st8" d="M437.05,42.65c0.39-0.77,0.96-1.42,1.65-1.97c0.68-0.54,1.51-0.96,2.44-1.1
							c0.94-0.14,1.95,0.16,2.65,0.75c0.39,0.26,0.63,0.65,0.9,0.99c0.23,0.37,0.39,0.78,0.54,1.17c-0.35-0.27-0.62-0.58-0.93-0.83
							c-0.33-0.23-0.62-0.5-0.96-0.64c-0.65-0.34-1.35-0.51-2.06-0.39c-0.71,0.09-1.42,0.39-2.12,0.74
							C438.45,41.74,437.76,42.18,437.05,42.65z"/>
					</g>
					<g>
						<path class="st9" d="M438.58,46.65c0.17,0.82,0.37,1.63,0.66,2.37c0.28,0.73,0.73,1.44,1.34,1.49
							c0.61,0.05,1.36-0.38,1.92-0.88c0.57-0.52,1.04-1.19,1.41-1.95c-0.06,0.84-0.39,1.69-0.97,2.37
							c-0.29,0.34-0.64,0.63-1.05,0.85c-0.39,0.21-0.87,0.4-1.4,0.33c-0.53-0.07-1-0.42-1.24-0.81c-0.27-0.39-0.42-0.81-0.53-1.24
							C438.5,48.34,438.48,47.49,438.58,46.65z"/>
					</g>
					<g>
						<path class="st9" d="M453.3,49.02c0.16,0.79,0.34,1.57,0.58,2.31c0.24,0.7,0.62,1.48,1.17,1.57c0.54,0.09,1.27-0.38,1.76-0.89
							c0.52-0.54,0.94-1.21,1.27-1.95c-0.04,0.81-0.31,1.64-0.83,2.32c-0.26,0.34-0.58,0.65-0.96,0.88
							c-0.37,0.22-0.85,0.44-1.38,0.32c-0.54-0.11-0.91-0.52-1.11-0.9c-0.22-0.39-0.34-0.8-0.43-1.21
							C453.21,50.64,453.2,49.82,453.3,49.02z"/>
					</g>
					<g>
						<path class="st10" d="M444.79,47.26c-0.47,1.52-1.02,3-1.61,4.46c-0.59,1.46-1.22,2.91-1.9,4.34l-0.04-0.2
							c1.14,1.22,2.28,2.45,3.38,3.71c-1.24-1.13-2.45-2.28-3.65-3.45l-0.08-0.08l0.04-0.12c0.54-1.49,1.15-2.94,1.78-4.39
							C443.36,50.09,444.03,48.66,444.79,47.26z"/>
					</g>
					<path class="st11" d="M443.74,62.87c0,0,0.73,6.63,9.49,0.28L443.74,62.87z"/>
				</g>
			</g>
			<g>
				<g>
					<path class="st7" d="M446.66,109.18c0,0,13.42-27.19,24.06-21.47c13.32,7.16-4.22,30.97-10.23,40.15
						c-6.01,9.18-13.05,32.41-21.63,29.33c-8.59-3.08-37.46-39.44-33.7-46.41c3.76-6.97,34.53,27.9,34.53,27.9L446.66,109.18z"/>
				</g>
				<g>
					<ellipse class="st12" cx="436.26" cy="209.91" rx="38.94" ry="6.49"/>
					<g>
						<path class="st13" d="M417.64,166.07c-0.28-0.13-0.52-0.28-0.73-0.45c-15.12,3.02-41.98,9.88-51.8,21.95
							c-5.46,6.71-6.35,7.73,4.42,33.01c5.76,13.51,38.92,76.01,40.36,71.61c0.29-0.9,6.52-4.52,6.39-10.25
							c-0.48-20.04-9.3-61.13-29.06-74.34c15.73,1.7,71.54,9.44,84.26-11.88c2.06-3.46,1.83-8.44,2.96-11.59
							C454.91,180.09,435.77,174.68,417.64,166.07z"/>
						<path class="st13" d="M398.82,265.4c0,0,13.58-43.61,18.3,26.8c0.17,2.52-23.37,21.77-24.26,19.27
							c-0.89-2.5,12.24-24.85,12.24-24.85L398.82,265.4z"/>
					</g>
					<g>
						<g>
							<path class="st6" d="M372.14,187.57c0,0-16.16,29.83-18.65,30.25s-32.69,0.47-30.66-1.24c9.84-8.28,23.51-9.5,23.51-9.5
								L372.14,187.57z"/>
							<path class="st6" d="M478.64,166.85c-2.49-30.25-28.18-13.67-28.18-13.67l-2.07,8.29c0,0-33.69-41.44-55.53-45.17
								c-16.99-2.9-23.62,15.33-27.76,29.42c-4.14,14.09-23.62,71.69-19.06,70.86c4.2-0.76,41.12-35.65,43.98-66.09
								c5.98,14.65,26.95,61.31,51.74,62.36C471.18,214.09,481.12,197.1,478.64,166.85z"/>
						</g>
						<g>
							<path class="st14" d="M438.58,150.55l4.7-5.8c0,0,30.66-7.73,36.46,1.66c5.8,9.39,14.92,85.36-46.96,64.37
								c0,0,16.57-21.82,19.06-45.03C451.84,165.75,440.24,151.93,438.58,150.55z"/>
							<path class="st0" d="M482.33,154.6c-0.77-3.86-1.71-6.78-2.59-8.19c-5.8-9.39-36.46-1.66-36.46-1.66l-2,2.47
								C453.96,153.93,468.15,154.75,482.33,154.6z"/>
						</g>
						<path class="st15" d="M424.21,204.97c0,0,4.42,5.53,10.22,6.35c0,0,19.06-29.83,17.4-45.58l-1.66-2.49
							C450.18,163.26,439.41,191.71,424.21,204.97z"/>
					</g>
				</g>
				<g>
					<path class="st16" d="M356.68,214.07l-2.69,5c0,0-32.93,1.17-31.55-4.15c1.38-5.31,19.96-7.23,19.96-7.23
						S333.83,212.12,356.68,214.07z"/>
					<g>
						<path class="st11" d="M354.35,218.11l-0.52,1.62c0,0-33.41,1.66-32.05-3.8c0.14-0.56,0.48-1.09,0.96-1.59
							C321.67,219.37,350.47,218.28,354.35,218.11z"/>
					</g>
				</g>
				<g>
					<path class="st16" d="M416.74,289.23l1.68,3.87c0,0-23.75,22.84-26.27,17.96c-2.52-4.88,10.13-19.3,10.13-19.3
						S398.42,303.01,416.74,289.23z"/>
					<g>
						<path class="st11" d="M418.05,292.15l0.69,1.56c0,0-23.78,23.52-26.41,18.54c-0.27-0.51-0.37-1.13-0.35-1.83
							C394.55,314.89,415.28,294.86,418.05,292.15z"/>
					</g>
				</g>
			</g>
			<g>
				<g>
					<path class="st17" d="M441.76,144.06c0,0,19.48,12.43,46.41,5.8c0,0,2.07-70.44-14.09-70.44c-16.16,0-36.05,33.56-33.98,40.61
						c2.07,7.04,3.73,14.92,3.73,14.92L441.76,144.06z"/>
					<path class="st0" d="M441.68,125.84c1.27,4.96,2.14,9.11,2.14,9.11l-2.07,9.12c0,0,19.48,12.43,46.41,5.8
						c0,0,0.57-19.44-1.23-37.89C473.36,119.79,457.49,123.97,441.68,125.84z"/>
				</g>
				<g>
					<g>
						<g>
							<g>
								<path class="st16" d="M415.7,122.85c-0.05,1.7-4.21,2.96-9.29,2.82c-5.08-0.14-9.17-1.63-9.12-3.33
									c0.05-1.7,4.21-2.96,9.29-2.82C411.66,119.66,415.75,121.15,415.7,122.85z"/>
								<polygon class="st16" points="417.73,103.55 415.7,122.85 397.29,122.34 396.34,102.96 								"/>
								<path class="st9" d="M417.73,103.55c-0.05,1.7-5.7,2.92-10.78,2.78c-5.08-0.14-10.66-1.67-10.61-3.37
									c0.05-1.7,5.7-2.92,10.78-2.78C412.2,100.32,417.78,101.85,417.73,103.55z"/>
							</g>
							<path class="st18" d="M422.42,114.09c-0.09,3.24-3.05,5.78-6.61,5.68c-3.56-0.1-6.37-2.8-6.28-6.04
								c0.09-3.24,3.05-5.78,6.61-5.68C419.7,108.15,422.51,110.86,422.42,114.09z"/>
						</g>
						<g>
							<polygon class="st11" points="405.15,110.15 402.32,111.95 402.32,116.33 407.98,117.04 407.98,112.02 							"/>
							<line class="st19" x1="405.08" y1="105.84" x2="405.19" y2="113.5"/>
						</g>
					</g>
					<g>
						<g>
							<path class="st6" d="M457.09,137.43l-31.61-24.29c0,0,0,0-1.85-0.92c-1.85-0.92-1.81,1.09-1.81,1.09
								c-2.17-1.62-1.45,1.64-1.45,1.64c-2.17-1.62-1.38,1.96-1.38,1.96s-2.42-0.73-1.16,2.11c0.83,1.87,22.95,25.96,30.14,32.63
								C451.21,148.55,453.89,140.58,457.09,137.43z"/>
							<path class="st6" d="M429.92,118.75c0,0-1.72-4.96-3.38-6.29c-1.66-1.34-0.59,2.68-0.59,2.68L429.92,118.75z"/>
						</g>
						<path class="st6" d="M458.75,110.91c0,0,2.07-30.25,14.09-29.01c15.04,1.56,7.87,30.25,5.8,41.02
							c-2.07,10.77-5.8,38.95-14.92,39.37c-9.12,0.41-44.75-40.19-43.92-48.07s35.64,22.38,35.64,22.38L458.75,110.91z"/>
					</g>
					<g>
						<path class="st6" d="M414.31,127.56c-7.4-5.7-14.95-10.15-21.45-11.26c-0.81-0.14-1.6-0.22-2.37-0.26
							c0.27,3.84,0.9,7.6,2,11.26C399.76,127.44,407.04,127.52,414.31,127.56z"/>
					</g>
				</g>
			</g>
		</g>
		<g>
			<g>
				<g>
					<g>
						<path class="st6" d="M275.7,244.76c0,0-3.15,75.04,5.38,73.01c8.53-2.03,22-71.18,22-71.18L275.7,244.76z"/>
						<path class="st7" d="M293.13,270.45c1.53,0.27,3.08,0.51,4.64,0.7c3.14-13.45,5.31-24.56,5.31-24.56l-27.38-1.82
							c0,0-0.35,8.46-0.5,19.61C280.75,267.4,287,269.36,293.13,270.45z"/>
						<path class="st6" d="M275.39,289.23l-0.29,26.37c6.94,1.19,40.74,7.33,11.31-7.6L275.39,289.23z"/>
						<path class="st11" d="M274.93,313.17l0.27,4.01c0,0,30.07,8.91,30.07,3.69c0-5.23-17-11.88-17-11.88
							S296.46,316.81,274.93,313.17z"/>
						<g>
							<path class="st14" d="M274.6,315.58l0.11,1.64c0,0,31.21,9.25,31.21,3.83c0-0.56-0.2-1.13-0.53-1.71
								C305.21,324.29,278.23,316.63,274.6,315.58z"/>
						</g>
					</g>
					<g>
						<path class="st6" d="M233.4,239.9c0,0-31.94,73.58-22.71,74.79c9.23,1.21,49.13-62.57,49.13-62.57L233.4,239.9z"/>
						<path class="st7" d="M240.8,272.12c1.41,0.85,2.85,1.68,4.33,2.46c8.28-12.2,14.69-22.46,14.69-22.46L233.4,239.9
							c0,0-3.6,8.29-8.03,19.35C229.71,264.37,235.14,268.7,240.8,272.12z"/>
						<path class="st11" d="M213.3,292.61c0,0-10.89,25.73-5.59,27.79c5.31,2.06,19.58-21.27,19.58-21.27s-5.94,5.14-11,1.96
							C212.33,298.61,213.3,292.61,213.3,292.61z"/>
						<path class="st14" d="M208.14,318.17c-1.2-0.44-1.68-1.91-1.67-3.95c-0.45,3.19-0.24,5.61,1.25,6.19
							c3.4,1.32,10.49-7.8,15.14-14.51C217.74,312.5,211.44,319.38,208.14,318.17z"/>
					</g>
				</g>
				<g>
					<path class="st12" d="M281.35,202.99c0,3.58-17.44,6.49-38.94,6.49c-21.51,0-38.94-2.91-38.94-6.49
						c0-3.58,17.44-6.49,38.94-6.49C263.91,196.5,281.35,199.4,281.35,202.99z"/>
					<path class="st17" d="M265.49,133.25c0,0,36.7,28.58,48.88,56.94c4.97,11.58-12.82,75.8-12.82,75.8s-10.41,1.15-29.5-2.5
						c0,0-0.62-33.35,8.4-60.21c6.31-18.8-23.08-33.68-22.65-34.33C258.84,167.35,265.49,133.25,265.49,133.25z"/>
					<path class="st17" d="M266.51,131.13l-41.16,7.11l-2.37,1.19c-0.48,1.19-0.63,2.6-1.78,5.74c15.1,1.54,34.27,3.35,52.94-5.29
						L266.51,131.13z"/>
					<path class="st0" d="M265.49,133.25c0,0,36.7,28.58,48.88,56.94c4.97,11.58-12.82,75.8-12.82,75.8s-10.41,1.15-29.5-2.5
						c0,0-0.62-33.35,8.4-60.21c6.31-18.8-23.08-33.68-22.65-34.33C258.84,167.35,265.49,133.25,265.49,133.25z"/>
					<path class="st17" d="M223.32,138.59c0,0-12.71,30.62-11.24,44.67c1.47,14.05,10.83,23.45,38.49,23.21
						c0,0-21.29,29.54-26.27,45.85c0,0,13.94,13.7,31.93,16.86c0,0,31.28-51.97,37.62-71.37c3.38-10.34-14.9-28.92-22.66-34.97
						c7.33-9.6,5.97-19.47,5.97-19.47l-10.65-12.23L223.32,138.59z"/>
					<path class="st0" d="M266.51,131.13l-41.16,7.11l-2.37,1.19c-0.48,1.19-0.63,2.6-1.78,5.74c15.1,1.54,34.27,3.35,52.94-5.29
						L266.51,131.13z"/>
				</g>
			</g>
			<g>
				<g>
					<path class="st20" d="M236.8,19.51c0,0,8.81-9.07,18.69-3.74c6.65,3.58,11.77,13.67,12.95,25.46
						c1.59,16,16.42,21.29,2.64,34.34c-8.02,7.59-30.42-0.82-30.42-0.82L236.8,19.51z"/>
				</g>
				<g>
					<path class="st0" d="M236.8,19.51c0,0,8.81-9.07,18.69-3.74c6.65,3.58,11.77,13.67,12.95,25.46c1.59,16,16.42,21.29,2.64,34.34
						c-8.02,7.59-30.42-0.82-30.42-0.82L236.8,19.51z"/>
					<g>
						<path class="st6" d="M232.69,77.21l-5.33-25.73l20.74,6.02l3,18.36l13.02-1.4c0,0,12.58,30.36-11.27,34.85
							c-23.86,4.49-38.12-24.28-38.12-24.28L232.69,77.21z"/>
						<path class="st7" d="M231.11,68.94l-3.75-17.45l19.76,5.09l3.34,14.86C244.48,71.84,237.91,71.19,231.11,68.94z"/>
						<path class="st21" d="M214.72,85.04l6.83-3.52c0,0,4.11,8.52,19.57,8.09c15.46-0.43,20.29-15.69,20.29-15.69
							s27.61,28.94,10.01,52.09l4.11,8.73c0,0-10.01,13.38-55.01,9.26l-3.08-31.42L214.72,85.04z"/>
						<path class="st0" d="M274.6,120.85c-32.15,8.73-48.71-0.67-57.18-11.47l0.01,3.21l3.08,31.42
							c46.05,4.12,55.01-9.26,55.01-9.26l-4.11-8.73C272.72,124.31,273.76,122.58,274.6,120.85z"/>
					</g>
				</g>
				<g>
					<g>
						<path class="st6" d="M279.12,96.03c0,0,24.64-11.88,33.81-14.41c9.17-2.53,40.24-1.94,40.24-1.94s-23.02-12-43.84-11.43
							c0,0-23.29,2.93-36.77,7.03C259.09,79.38,279.12,96.03,279.12,96.03z"/>
						<path class="st7" d="M288.16,89.33c-0.35-5.76-2.21-11.14-3.77-16.63c-4.53,0.76-8.69,1.62-11.83,2.57
							c-13.48,4.1,6.55,20.75,6.55,20.75s3.64-1.22,8.84-2.95C288.16,91.86,288.24,90.61,288.16,89.33z"/>
						<path class="st7" d="M336.22,72.79c-2.52,2.37-5.02,4.74-7.51,7.14c11.61-0.5,24.46-0.26,24.46-0.26
							S346.09,75.98,336.22,72.79z"/>
					</g>
					<path class="st21" d="M282.48,71.48c0,0,5.03,17.06,0.31,26.04l-12.6,4.22l-8.79-27.81C261.4,73.93,267.57,71.89,282.48,71.48z
						"/>
				</g>
				<g>
					<g>
						<g>
							<g>
								<path class="st16" d="M250.57,156.42c0.05,1.7,4.21,2.96,9.29,2.82c5.08-0.14,9.16-1.63,9.12-3.33
									c-0.05-1.7-4.21-2.96-9.29-2.82C254.61,153.22,250.52,154.72,250.57,156.42z"/>
								<polygon class="st16" points="248.54,137.12 250.57,156.42 268.98,155.9 269.93,136.52 								"/>
								<path class="st9" d="M248.54,137.12c0.05,1.7,5.7,2.92,10.78,2.78c5.08-0.14,10.66-1.67,10.61-3.37
									c-0.05-1.7-5.7-2.92-10.78-2.78C254.07,133.88,248.5,135.42,248.54,137.12z"/>
							</g>
							<path class="st18" d="M243.85,147.66c0.09,3.24,3.05,5.78,6.61,5.68c3.56-0.1,6.37-2.8,6.28-6.04
								c-0.09-3.24-3.05-5.78-6.61-5.68C246.57,141.72,243.76,144.42,243.85,147.66z"/>
						</g>
						<g>
							<polygon class="st11" points="259.71,144.55 256.88,146.35 256.88,150.72 262.54,151.43 262.54,146.41 							"/>
							<line class="st19" x1="259.64" y1="140.23" x2="259.74" y2="147.89"/>
						</g>
					</g>
					<g>
						<g>
							<path class="st6" d="M196.89,114.68c0,0-10.5,43.2-1.7,45.44c8.38,2.14,48.68-3.66,52.85-6.16c2.99-1.79,0.3-2.69,0.3-2.69
								s3.04-2.77,0-2.69c0,0,2.77-2.53-0.27-2.44c0,0,1.34-1.82-0.95-2.17c-2.29-0.35-2.29-0.35-2.29-0.35l-32.47,0.07
								c0,0,5.79-30.01,5.68-34.15C217.92,105.39,205.37,91.65,196.89,114.68z"/>
							<path class="st7" d="M212.89,125.85c0.9,0.1,1.8,0.2,2.7,0.31c1.3-7.39,2.49-14.72,2.44-16.62
								c-0.11-4.14-12.66-17.89-21.15,5.15c0,0-0.66,2.71-1.51,6.81C200.36,125.02,206.91,125.21,212.89,125.85z"/>
						</g>
						<path class="st21" d="M221.54,81.53c0,0-11.52,3.08-17.9,12.1c-6.38,9.02-9.36,21.26-9.36,21.26s15.21,10.49,24.57,9.13
							l6.95-28.24C225.81,95.78,218.57,93.77,221.54,81.53z"/>
						<path class="st6" d="M237.13,145.89c0,0,4.78-3.44,7.17-3.59c2.39-0.15-1.2,2.84-1.2,2.84L237.13,145.89z"/>
					</g>
				</g>
				<g>
					<path class="st6" d="M260.75,33.42c-7.18-21.37-28.16-9.4-39.14-4.34c3.19,11.73,2.43,16.83,1.79,28.66
						C247.49,78.58,272.07,67.1,260.75,33.42z"/>
					<g>
						<path class="st20" d="M251.8,22.16c1.36,8.34-13.34,4.01-18.12,15.86c-5.49,13.6,13.03,26.6,1.23,42.55
							c-7.19,9.72-21.36,4.47-21.36,4.47s-18.94-8.61-9.61-24.94c6.17-10.8,9.7-22.58,12.16-33.69c2.45-11.12,18.13-16.18,26-14.02
							C251.88,15.08,251.14,18.09,251.8,22.16z"/>
						<path class="st0" d="M217.23,78.31c0,0-18.05-8.21-10.21-23.81c-0.02-0.06-0.05-0.11-0.08-0.17
							c-0.93,1.95-1.93,3.88-3.01,5.77c-9.33,16.33,9.61,24.94,9.61,24.94s14.17,5.24,21.36-4.47c1.55-2.09,2.57-4.13,3.2-6.13
							C230.78,83.32,217.23,78.31,217.23,78.31z"/>
					</g>
				</g>
				<g>
					<g>
						<path class="st22" d="M245.76,35.8c-1.05-0.28-2.07-0.49-3.08-0.62c-1.01-0.11-2.01-0.13-2.96,0.07
							c-0.96,0.16-1.82,0.61-2.59,1.22c-0.81,0.59-1.4,1.44-2.08,2.29c0.24-1.04,0.66-2.12,1.47-2.95c0.35-0.46,0.86-0.76,1.34-1.09
							l0.8-0.36c0.27-0.1,0.56-0.16,0.84-0.24c1.14-0.22,2.3-0.13,3.37,0.18C243.92,34.61,244.92,35.1,245.76,35.8z"/>
					</g>
					<g>
						<path class="st22" d="M261.58,35.84c-0.72-0.45-1.42-0.87-2.13-1.22c-0.71-0.34-1.43-0.62-2.14-0.68
							c-0.71-0.1-1.4,0.09-2.05,0.45c-0.34,0.15-0.62,0.43-0.94,0.67c-0.31,0.26-0.57,0.57-0.91,0.85c0.14-0.4,0.29-0.81,0.51-1.18
							c0.26-0.35,0.49-0.74,0.87-1.01c0.68-0.61,1.69-0.94,2.63-0.82c0.94,0.11,1.77,0.51,2.47,1.04
							C260.58,34.44,261.17,35.08,261.58,35.84z"/>
					</g>
					<g>
						<path class="st10" d="M253.93,39.01c0.8,1.37,1.51,2.78,2.19,4.21c0.67,1.43,1.32,2.87,1.9,4.34l0.05,0.12l-0.08,0.08
							c-1.17,1.2-2.34,2.39-3.55,3.55c1.07-1.29,2.17-2.55,3.28-3.8l-0.03,0.21c-0.73-1.4-1.39-2.84-2.02-4.28
							C255.03,41.98,254.44,40.51,253.93,39.01z"/>
					</g>
					<path class="st9" d="M259.78,41.24c0.24,1.66-0.11,3.08-0.79,3.18c-0.68,0.1-1.42-1.16-1.67-2.82
						c-0.24-1.66,0.11-3.08,0.79-3.18C258.79,38.32,259.54,39.58,259.78,41.24z"/>
					<path class="st9" d="M244.22,42.84c0.28,1.65-0.04,3.08-0.72,3.19c-0.67,0.11-1.45-1.13-1.73-2.78
						c-0.28-1.65,0.04-3.08,0.72-3.19C243.17,39.95,243.94,41.19,244.22,42.84z"/>
					<g>
						<path class="st10" d="M256.05,55.64c-0.66,0.34-1.37,0.57-2.09,0.75c-0.72,0.18-1.47,0.29-2.22,0.32
							c-0.75,0.02-1.51-0.03-2.24-0.2c-0.73-0.18-1.44-0.47-2.04-0.91c0.71,0.24,1.4,0.41,2.12,0.5c0.72,0.07,1.43,0.1,2.15,0.07
							C253.16,56.12,254.59,55.9,256.05,55.64z"/>
					</g>
				</g>
			</g>
		</g>
	</g>
	<g>
		<ellipse class="st0" cx="624.63" cy="310.14" rx="39.96" ry="11.2"/>
		<g>
			<ellipse class="st23" cx="624.43" cy="230.68" rx="26.57" ry="7.43"/>
			<path class="st24" d="M603.4,113.44c0,0,20.44,0.92-2.71-40.36c-23.15-41.28-69.88-54.02-76.23-36.67
				c-6.36,17.35,40.21,24.57,56.03,50.04S603.4,113.44,603.4,113.44z"/>
			<path class="st24" d="M598.35,171.35c0,0,16.95-2.31,0.31-35.15c-21.2-41.85-43.01-46.55-50.89-30.01
				c-8.76,18.4,13.27,17.1,27.83,43.01C590.17,175.11,598.35,171.35,598.35,171.35z"/>
			<path class="st24" d="M637.83,215.05c0,0-5.46-4.28-3.47-16.27c1.99-11.99,7.93-36.8,21.15-33.34
				c12.33,3.23,6.65,14.7-0.02,29.05C651.06,203.99,643.8,217.28,637.83,215.05z"/>
			<path class="st24" d="M616.45,68.22c0,0-9.66-0.23-17.49-14.59s-22-45.49-4.4-52.27c16.41-6.32,19.7,10.4,24.3,30.97
				C621.91,45.95,624.96,65.85,616.45,68.22z"/>
			<path class="st24" d="M635.55,101.17c0,0-11.24-13.13-2.03-32.34c9.21-19.21,17.88-18.03,23.42-15.47
				c5.55,2.56,8.55,17.75-1.01,30.86C646.37,97.34,645.61,102.17,635.55,101.17z"/>
			<path class="st24" d="M639.53,145.67c0,0-8.85-7.07-4.15-20.49c4.61-13.15,37.14-60.07,53.89-54.84
				c16.75,5.22,0.27,24.97-7.6,35.7C670.74,120.94,661.18,153.12,639.53,145.67z"/>
			<path class="st25" d="M568.64,118.66c45.55,49.04,47.06,121.41,44.88,185.5"/>
			<path class="st25" d="M557.14,48.41c0,0,81.87,16.59,54.33,231.89"/>
			<path class="st25" d="M605.54,21.6c0,0,28.23,46.52,9.97,258.16"/>
			<path class="st25" d="M672.26,96.64c0,0-49.27,26.33-49.53,183.69"/>
			<path class="st25" d="M648.4,67.63c0,0-14.18,26.57-19.47,57.32c-4.25,24.7-11.37,157.82-11.37,157.82"/>
			<path class="st25" d="M653.62,175.31c0,0-26.86,44.06-26.08,112.24"/>
			<path class="st17" d="M651.12,230.13c-4.8,4.96-16.37,6.61-26.77,7.5c-12.45-0.62-19.89-2.27-26.77-7.5
				c0,0-5.78,41.3,10.74,76.82c0,0,6.21,5.31,16.03,4.91c9.82,0.4,16.03-4.91,16.03-4.91C656.9,271.44,651.12,230.13,651.12,230.13z
				"/>
		</g>
	</g>
	<g>
		<g>
			<path class="st26" d="M25.39,117.54c0,0-4.52-9.86-12.33-8.63c-7.81,1.23-18.08,11.09-10.27,19.31
				C10.59,136.45,28.67,131.51,25.39,117.54z"/>
			<path class="st26" d="M35.86,92.61c0,0,7.74-9.34,2.71-16.61c-5.03-7.27-19.96-12.83-24.45-0.97
				C9.63,86.89,23.38,102.71,35.86,92.61z"/>
			<path class="st24" d="M53.87,106.39c0,0,9.29-4.28,8.11-11.64c-1.18-7.36-10.5-17.02-18.23-9.64
				C36.02,92.48,40.71,109.52,53.87,106.39z"/>
			<path class="st24" d="M68.99,96.6c0,0,9.29,4.28,14.12-1.39s6.13-19.04-4.5-20.13C67.97,73.99,58.06,88.62,68.99,96.6z"/>
			<path class="st26" d="M71.46,117.55c0,0,9.29,4.28,14.12-1.39c4.83-5.67,6.13-19.04-4.5-20.13
				C70.44,94.95,60.53,109.57,71.46,117.55z"/>
			<path class="st24" d="M94.3,124.12c0,0-5.53-5.71-11.4-3.05s-11.91,11.78-4.13,15.6C86.54,140.49,99.7,132.93,94.3,124.12z"/>
			<path class="st27" d="M45.11,157.4c0,0,3.29-46.84-32.87-38.63"/>
			<path class="st27" d="M25.39,79.33c0,0,26.3,39.45,20.55,79.72c0,0,12.33-43.56,4.93-68.21"/>
			<path class="st27" d="M75.52,85.9c0,0-21.37,22.19-18.08,72.32c0,0,3.29-38.63,23.42-53.83"/>
			<path class="st27" d="M91.51,127.12c0,0-19.65-6-30.86,33.55"/>
			<path class="st14" d="M27.78,145.24c0,0-8.18,41.27,24.79,45.51c32.97,4.24,31.12-45.04,31.12-45.04L27.78,145.24z"/>
			<path class="st0" d="M27.19,162.04c1.22,11.95,6.66,26.31,25.39,28.71c15,1.93,22.79-7.22,26.83-17.76
				C61.91,169.78,44.49,166.18,27.19,162.04z"/>
		</g>
		<g>
			<ellipse class="st0" cx="54.06" cy="310.9" rx="52.62" ry="10.45"/>
			<g>
				<g>
					<path class="st1" d="M30.36,190.78c0,0-22.87,122.57-17.51,120.81c5.35-1.76,27.73-117.29,27.73-117.29L30.36,190.78z"/>
					<path class="st1" d="M78.55,190.78c0,0,22.87,122.57,17.51,120.81c-5.35-1.76-27.73-117.29-27.73-117.29L78.55,190.78z"/>
				</g>
				<g>
					<path class="st2" d="M36.83,213.18c2.27-11.3,3.74-18.88,3.74-18.88l-10.22-3.52c0,0-1.61,8.64-3.88,21.3
						C29.93,212.46,33.38,212.83,36.83,213.18z"/>
					<path class="st2" d="M83.38,217.38c-2.75-15.48-4.83-26.6-4.83-26.6l-10.22,3.52c0,0,1.76,9.09,4.41,22.22
						C76.29,216.81,79.83,217.1,83.38,217.38z"/>
				</g>
				<polygon class="st17" points="1.97,185.5 107.53,187.26 107.53,195.47 1.38,196.06 				"/>
			</g>
		</g>
	</g>
</g>
</svg>
